<?xml version="1.0" encoding="utf-8"?>
<!-- Generator: Adobe Illustrator 26.0.3, SVG Export Plug-In . SVG Version: 6.00 Build 0)  -->
<svg version="1.0" id="katman_1" xmlns="http://www.w3.org/2000/svg" xmlns:xlink="http://www.w3.org/1999/xlink" x="0px" y="0px"
	 viewBox="0 0 600 450" style="enable-background:new 0 0 600 450;" xml:space="preserve">
<style type="text/css">
	.st0{fill:#53B4E4;}
	.st1{fill:#282F64;}
</style>
<path class="st0" d="M222.4,185.7c0,0,4.1,3.7,9.2,3.7c3,0,5.2-1.5,5.2-4.4c0-6.7-17.4-5.5-17.4-16.6c0-5.9,5.2-10.7,12.2-10.7
	s11.1,4.1,11.1,4.1l-3,5.5c0,0-3.3-3.3-8.1-3.3c-3,0-5.5,1.8-5.5,4.4c0,6.7,17,4.8,17,16.6c0,5.9-4.4,10.7-12.2,10.7
	c-8.1,0-12.6-5.2-12.6-5.2L222.4,185.7z"/>
<path class="st0" d="M270.5,158c8.9,0,13.3,5.2,13.3,5.2l-3,4.8c0,0-4.1-3.7-10-3.7c-7.8,0-12.2,5.9-12.2,12.6
	c0,7,4.8,12.9,12.2,12.9c6.3,0,10.7-4.8,10.7-4.8l3.3,4.8c0,0-5.2,5.9-14.4,5.9c-11.1,0-18.9-8.1-18.9-18.9
	C251.6,166.1,259.8,158,270.5,158"/>
<rect x="295.3" y="158.4" class="st0" width="6.7" height="36.6"/>
<polygon class="st0" points="315.3,158.4 337.1,158.4 337.1,164.3 321.9,164.3 321.9,173.9 334.1,173.9 334.1,179.4 321.9,179.4 
	321.9,189.4 337.8,189.4 337.8,195 315.3,195 "/>
<path class="st0" d="M348.9,158.4h6.7l13.7,21.1c1.5,2.2,3,5.5,3,5.5l0,0c0,0-0.4-3.3-0.4-5.5v-21.1h6.7V195h-6.7l-13.7-21.1
	c-1.5-2.2-3-5.5-3-5.5l0,0c0,0,0.4,3.3,0.4,5.5V195h-6.7V158.4z"/>
<path class="st0" d="M408.5,158c8.9,0,13.3,5.2,13.3,5.2l-3,4.8c0,0-4.1-3.7-10-3.7c-7.8,0-12.2,5.9-12.2,12.6
	c0,7,4.8,12.9,12.2,12.9c6.3,0,10.7-4.8,10.7-4.8l3.3,4.8c0,0-5.2,5.9-14.4,5.9c-11.1,0-18.9-8.1-18.9-18.9
	C389.6,166.1,397.8,158,408.5,158"/>
<polygon class="st0" points="432.9,158.4 455.1,158.4 455.1,164.3 439.6,164.3 439.6,173.9 452.1,173.9 452.1,179.4 439.6,179.4 
	439.6,189.4 455.8,189.4 455.8,195 432.9,195 "/>
<path class="st0" d="M467.7,185.7c0,0,4.1,3.7,9.2,3.7c3,0,5.2-1.5,5.2-4.4c0-6.7-17.4-5.5-17.4-16.6c0-5.9,5.2-10.7,12.2-10.7
	c7,0,11.1,4.1,11.1,4.1l-3,5.5c0,0-3.3-3.3-8.1-3.3c-3,0-5.5,1.8-5.5,4.4c0,6.7,17,4.8,17,16.6c0,5.9-4.4,10.7-12.2,10.7
	c-8.1,0-12.6-5.2-12.6-5.2L467.7,185.7z"/>
<path class="st1" d="M141,194.2h5.5V182c0-1.5-1.1-3-3-3c-1.5,0-3,1.1-3,3v12.2H141z"/>
<path class="st1" d="M129.2,194.2h5.5V182c0-1.5-1.1-3-3-3c-1.5,0-3,1.1-3,3v12.2H129.2z"/>
<path class="st1" d="M152.8,194.2h5.5V182c0-1.5-1.1-3-3-3c-1.5,0-3,1.1-3,3L152.8,194.2L152.8,194.2z"/>
<path class="st1" d="M145.1,149.1c3.7,0.7,5.2,4.1,5.2,6.3v4.8h3.3v2.6c8.9,4.1,15.2,13.3,15.2,22.9l0,0v8.1h20.7v-8.5
	c-0.4-26.6-19.6-42.9-45.1-43.3L145.1,149.1z"/>
<path class="st1" d="M145.1,149.1c3.7,0.7,5.2,4.1,5.2,6.3v4.8h3.3v2.6c8.9,4.1,15.2,13.3,15.2,22.9l0,0v8.1h20.7v-8.5
	c-0.4-26.6-19.6-42.9-45.1-43.3L145.1,149.1z"/>
<path class="st1" d="M141.4,155v4.8h5.2V155c0-1.5-1.1-2.6-2.6-2.6C142.5,152.8,141.4,153.9,141.4,155"/>
<path class="st1" d="M141.4,155v4.8h5.2V155c0-1.5-1.1-2.6-2.6-2.6C142.5,152.8,141.4,153.9,141.4,155"/>
<path class="st1" d="M147.7,207.2c-21.1-5.5-29.2-10-29.2-23.3c0-9.6,6.3-17.8,15.5-21.5v-2.2h3.3v-4.8c0-2.2,1.5-5.5,5.2-6.3l0.7-7
	c-25.5,0.4-47.4,17.8-46.2,41.8c1.1,26.6,30.3,34,46.2,37.4c12.6,2.6,42.2,9.6,49.6,30.7C192.8,252,195.8,217.2,147.7,207.2"/>
<path class="st1" d="M147.7,207.2c-21.1-5.5-29.2-10-29.2-23.3c0-9.6,6.3-17.8,15.5-21.5v-2.2h3.3v-4.8c0-2.2,1.5-5.5,5.2-6.3l0.7-7
	c-25.5,0.4-47.4,17.8-46.2,41.8c1.1,26.6,30.3,34,46.2,37.4c12.6,2.6,42.2,9.6,49.6,30.7C192.8,252,195.8,217.2,147.7,207.2"/>
<path class="st1" d="M140.6,244.2c21.5,6.7,27,14.4,27,25.5c0,17-13.3,24-30,24c-15.9,0-29.6-7.4-38.8-17l-3.3,7
	c6.3,12.9,25.2,24.8,46.2,24.8l0,0l0,0c27,0.4,49.9-12.6,49.9-37.7c0-27.4-30-38.1-46.2-41.8c-12.9-3-45.9-11.5-51.8-30
	C94,199.1,87.4,230.9,140.6,244.2"/>
<path class="st1" d="M140.6,244.2c21.5,6.7,27,14.4,27,25.5c0,17-13.3,24-30,24c-15.9,0-29.6-7.4-38.8-17l-3.3,7
	c6.3,12.9,25.2,24.8,46.2,24.8l0,0l0,0c27,0.4,49.9-12.6,49.9-37.7c0-27.4-30-38.1-46.2-41.8c-12.9-3-45.9-11.5-51.8-30
	C94,199.1,87.4,230.9,140.6,244.2"/>
<path class="st1" d="M223.9,237.5c0,0,3.7,3.3,8.5,3.3c2.6,0,4.8-1.1,4.8-4.1c0-5.9-15.9-4.8-15.9-14.8c0-5.5,4.8-9.2,11.5-9.2
	s10,3.3,10,3.3l-2.6,4.8c0,0-3.3-3-7.4-3c-3,0-5.2,1.5-5.2,3.7c0,5.9,15.9,4.4,15.9,14.8c0,5.2-4.1,9.6-11.1,9.6
	c-7.4,0-11.5-4.4-11.5-4.4L223.9,237.5z"/>
<path class="st1" d="M269.4,241.2c6.3,0,11.1-4.8,11.1-11.5c0-6.3-4.8-11.1-11.1-11.1c-6.3,0-11.1,4.8-11.1,11.1
	S263.1,241.2,269.4,241.2 M269.4,213.1c10,0,17.4,7.4,17.4,16.6c0,9.6-7.4,17-17.4,17c-10,0-17.4-7.4-17.4-17
	S259.4,213.1,269.4,213.1"/>
<path class="st1" d="M308.2,228.6c3.3,0,5.2-1.8,5.2-5.2c0-3-1.5-5.2-6.3-5.2h-4.8v10L308.2,228.6L308.2,228.6z M296.4,213.5h10.7
	c3.7,0,5.2,0.4,6.7,0.7c3.3,1.5,5.5,4.4,5.5,8.9c0,3.7-2.2,7.4-5.5,8.9l0,0c0,0,0.4,0.4,1.1,1.5l7,12.2h-6.7l-6.7-12.2h-5.9v12.2
	h-6.3C296.4,245.7,296.4,213.5,296.4,213.5z"/>
<path class="st1" d="M343.4,240.9c3,0,4.8-1.8,4.8-4.8c0-2.6-1.8-4.8-4.8-4.8h-6.7v9.2L343.4,240.9L343.4,240.9z M342.6,226.8
	c2.6,0,4.1-1.8,4.1-4.1s-1.5-4.1-4.4-4.1h-5.9v8.1H342.6z M330.8,213.5H343c5.9,0,10.4,3,10.4,8.5c0,3-1.5,5.5-4.1,7l0,0
	c3.7,1.1,5.5,4.4,5.5,7.8c0,6.3-5.5,9.2-11.5,9.2h-12.2v-32.6H330.8z"/>
<path class="st1" d="M380,241.2c6.3,0,11.1-4.8,11.1-11.5c0-6.3-4.8-11.1-11.1-11.1s-11.1,4.8-11.1,11.1S373.7,241.2,380,241.2
	 M380,213.1c10,0,17.4,7.4,17.4,16.6c0,9.6-7.4,17-17.4,17s-17.4-7.4-17.4-17C362.6,220.1,370,213.1,380,213.1"/>
<path class="st1" d="M407.7,213.5h6.3l12.6,18.5c1.1,1.8,3,5.2,3,5.2l0,0c0,0-0.4-3-0.4-5.2v-18.5h5.9v32.2h-5.9l-12.9-18.5
	c-1.1-1.8-3-5.2-3-5.2l0,0c0,0,0.4,3,0.4,5.2v18.5h-6.3L407.7,213.5L407.7,213.5z"/>
<path class="st1" d="M447.3,213.5h6.3l12.6,18.5c1.1,1.8,3,5.2,3,5.2l0,0c0,0-0.4-3-0.4-5.2v-18.5h5.9v32.2h-5.9l-12.6-18.5
	c-1.1-1.8-3-5.2-3-5.2l0,0c0,0,0.4,3,0.4,5.2v18.5h-6.3V213.5z"/>
<polygon class="st1" points="487.3,213.5 487.3,246 508,246 508,240.9 493.2,240.9 493.2,232.3 504.7,232.3 504.7,227.2 
	493.2,227.2 493.2,218.7 507.3,218.7 507.3,213.5 "/>
<path class="st1" d="M221.3,260.1h6.3v21.1c0,4.4,3,7,7.4,7s7.4-2.6,7.4-7v-20.7h6.3v21.1c0,7.4-5.5,12.2-13.7,12.2
	s-13.7-4.8-13.7-12.2V260.1z"/>
<path class="st1" d="M259,260.5h6.3l12.6,18.5c1.1,1.8,3,5.2,3,5.2l0,0c0,0-0.4-3-0.4-5.2v-18.5h5.9v32.2h-5.9l-12.6-18.5
	c-1.1-1.8-3-5.2-3-5.2l0,0c0,0,0.4,3,0.4,5.2v18.5H259V260.5z"/>
<rect x="297.1" y="260.5" class="st1" width="6.3" height="32.2"/>
<path class="st1" d="M310.1,260.5h6.7l7.4,21.1c0.7,1.8,1.1,4.8,1.1,4.8l0,0c0,0,0.7-3,1.1-4.8l7.4-21.1h6.7l-12.2,32.2h-5.9
	L310.1,260.5z"/>
<polygon class="st1" points="347.4,260.5 367.4,260.5 367.4,265.6 353.4,265.6 353.4,274.2 364.8,274.2 364.8,279 353.4,279 
	353.4,287.8 368.2,287.8 368.2,292.7 347.4,292.7 "/>
<path class="st1" d="M388.5,275.6c3.3,0,5.2-1.8,5.2-5.2c0-3-1.5-5.2-6.3-5.2h-4.8v10h5.9V275.6z M377,260.5h10.7
	c3.7,0,5.2,0.4,6.7,0.7c3.3,1.5,5.5,4.4,5.5,8.9c0,3.7-2.2,7.4-5.5,8.9l0,0c0,0,0.4,0.4,1.1,1.5l7,12.2h-6.7l-6.7-12.2h-5.9v12.2
	H377C377,292.7,377,260.5,377,260.5z"/>
<path class="st1" d="M411.4,284.5c0,0,3.7,3.3,8.5,3.3c2.6,0,4.8-1.1,4.8-4.1c0-5.9-15.9-4.8-15.9-14.8c0-5.5,4.8-9.2,11.5-9.2
	s10,3.3,10,3.3l-2.6,4.8c0,0-3.3-3-7.4-3c-3,0-5.2,1.5-5.2,3.7c0,5.9,15.9,4.4,15.9,14.8c0,5.2-4.1,9.6-11.1,9.6
	c-7.4,0-11.5-4.4-11.5-4.4L411.4,284.5z"/>
<rect x="439.2" y="260.5" class="st1" width="6.3" height="32.2"/>
<polygon class="st1" points="463.2,265.6 452.1,265.6 452.1,260.5 480.3,260.5 480.3,265.6 469.2,265.6 469.2,292.7 463.2,292.7 "/>
<path class="st1" d="M487.3,260.5v32.2h21.1v-5.2h-14.8V279H505v-5.2h-11.8v-8.5h14.1v-4.8H487.3z M498.8,252l-3.7,6.3h4.8l4.8-6.3
	H498.8z"/>
</svg>
